<svg width="14" height="14" viewBox="0 0 14 14" fill="none" xmlns="http://www.w3.org/2000/svg">
<g id="uil:exchange">
<path id="Vector" d="M10.5 5.83333C10.5 5.67862 10.4385 5.53025 10.3291 5.42085C10.2197 5.31145 10.0714 5.25 9.91667 5.25H3.15583L4.4975 3.91416C4.60734 3.80432 4.66905 3.65534 4.66905 3.5C4.66905 3.34465 4.60734 3.19567 4.4975 3.08583C4.38766 2.97599 4.23868 2.91428 4.08333 2.91428C3.92799 2.91428 3.77901 2.97599 3.66917 3.08583L1.33583 5.41916C1.25489 5.50119 1.20006 5.60536 1.17826 5.71852C1.15646 5.83168 1.16866 5.94877 1.21333 6.055C1.2571 6.16152 1.33141 6.25271 1.42691 6.31708C1.52242 6.38144 1.63484 6.41609 1.75 6.41666H9.91667C10.0714 6.41666 10.2197 6.3552 10.3291 6.24581C10.4385 6.13641 10.5 5.98804 10.5 5.83333ZM12.7867 7.945C12.7429 7.83847 12.6686 7.74728 12.5731 7.68292C12.4776 7.61856 12.3652 7.5839 12.25 7.58333H4.08333C3.92862 7.58333 3.78025 7.64479 3.67085 7.75418C3.56146 7.86358 3.5 8.01195 3.5 8.16666C3.5 8.32137 3.56146 8.46975 3.67085 8.57914C3.78025 8.68854 3.92862 8.75 4.08333 8.75H10.8442L9.5025 10.0858C9.44783 10.1401 9.40443 10.2046 9.37481 10.2757C9.3452 10.3467 9.32995 10.423 9.32995 10.5C9.32995 10.577 9.3452 10.6532 9.37481 10.7243C9.40443 10.7954 9.44783 10.8599 9.5025 10.9142C9.55673 10.9688 9.62125 11.0122 9.69233 11.0419C9.76341 11.0715 9.83966 11.0867 9.91667 11.0867C9.99367 11.0867 10.0699 11.0715 10.141 11.0419C10.2121 11.0122 10.2766 10.9688 10.3308 10.9142L12.6642 8.58083C12.7451 8.4988 12.7999 8.39463 12.8217 8.28147C12.8435 8.16831 12.8313 8.05123 12.7867 7.945Z" fill="#26324F"/>
</g>
</svg>
